<?xml version="1.0" encoding="UTF-8"?>
<!DOCTYPE svg PUBLIC "-//W3C//DTD SVG 1.1//EN" "http://www.w3.org/Graphics/SVG/1.1/DTD/svg11.dtd">
<svg width="326mm" height="90mm" viewBox="0 0 32600 9000" version="1.1" xmlns="http://www.w3.org/2000/svg" xmlns:xlink="http://www.w3.org/1999/xlink" stroke-width="28.222" stroke-linejoin="round" xml:space="preserve">
 <path fill="rgb(255,255,255)" stroke="none" d="M 16060,8986 L -13,8986 -13,-13 32133,-13 32133,8986 16060,8986 Z"/>
 <path fill="none" stroke="rgb(179,179,179)" stroke-linejoin="round" d="M 16737,6391 L 2124,6391 2124,1414 31351,1414 31351,6391 16737,6391 Z"/>
 <path fill="none" stroke="rgb(179,179,179)" stroke-linejoin="round" d="M 31351,6390 L 2124,6390"/>
 <path fill="none" stroke="rgb(179,179,179)" stroke-linejoin="round" d="M 31351,5560 L 2124,5560"/>
 <path fill="none" stroke="rgb(179,179,179)" stroke-linejoin="round" d="M 31351,4730 L 2124,4730"/>
 <path fill="none" stroke="rgb(179,179,179)" stroke-linejoin="round" d="M 31351,3902 L 2124,3902"/>
 <path fill="none" stroke="rgb(179,179,179)" stroke-linejoin="round" d="M 31351,3072 L 2124,3072"/>
 <path fill="none" stroke="rgb(179,179,179)" stroke-linejoin="round" d="M 31351,2242 L 2124,2242"/>
 <path fill="none" stroke="rgb(179,179,179)" stroke-linejoin="round" d="M 31351,1413 L 2124,1413"/>
 <path fill="none" stroke="rgb(179,179,179)" stroke-linejoin="round" d="M 2124,6540 L 2124,6390"/>
 <path fill="none" stroke="rgb(179,179,179)" stroke-linejoin="round" d="M 2124,6540 L 2124,6390"/>
 <path fill="none" stroke="rgb(179,179,179)" stroke-linejoin="round" d="M 5726,6540 L 5726,6390"/>
 <path fill="none" stroke="rgb(179,179,179)" stroke-linejoin="round" d="M 5726,6540 L 5726,6390"/>
 <path fill="none" stroke="rgb(179,179,179)" stroke-linejoin="round" d="M 9328,6540 L 9328,6390"/>
 <path fill="none" stroke="rgb(179,179,179)" stroke-linejoin="round" d="M 9328,6540 L 9328,6390"/>
 <path fill="none" stroke="rgb(179,179,179)" stroke-linejoin="round" d="M 12931,6540 L 12931,6390"/>
 <path fill="none" stroke="rgb(179,179,179)" stroke-linejoin="round" d="M 12931,6540 L 12931,6390"/>
 <path fill="none" stroke="rgb(179,179,179)" stroke-linejoin="round" d="M 16534,6540 L 16534,6390"/>
 <path fill="none" stroke="rgb(179,179,179)" stroke-linejoin="round" d="M 16534,6540 L 16534,6390"/>
 <path fill="none" stroke="rgb(179,179,179)" stroke-linejoin="round" d="M 20137,6540 L 20137,6390"/>
 <path fill="none" stroke="rgb(179,179,179)" stroke-linejoin="round" d="M 20137,6540 L 20137,6390"/>
 <path fill="none" stroke="rgb(179,179,179)" stroke-linejoin="round" d="M 23739,6540 L 23739,6390"/>
 <path fill="none" stroke="rgb(179,179,179)" stroke-linejoin="round" d="M 23739,6540 L 23739,6390"/>
 <path fill="none" stroke="rgb(179,179,179)" stroke-linejoin="round" d="M 27343,6540 L 27343,6390"/>
 <path fill="none" stroke="rgb(179,179,179)" stroke-linejoin="round" d="M 27343,6540 L 27343,6390"/>
 <path fill="none" stroke="rgb(179,179,179)" stroke-linejoin="round" d="M 30945,6540 L 30945,6390"/>
 <path fill="none" stroke="rgb(179,179,179)" stroke-linejoin="round" d="M 30945,6540 L 30945,6390"/>
 <path fill="none" stroke="rgb(179,179,179)" stroke-linejoin="round" d="M 2124,6390 L 31351,6390"/>
 <path fill="none" stroke="rgb(179,179,179)" stroke-linejoin="round" d="M 1976,6390 L 2124,6390"/>
 <path fill="none" stroke="rgb(179,179,179)" stroke-linejoin="round" d="M 1976,6390 L 2124,6390"/>
 <path fill="none" stroke="rgb(179,179,179)" stroke-linejoin="round" d="M 1976,5560 L 2124,5560"/>
 <path fill="none" stroke="rgb(179,179,179)" stroke-linejoin="round" d="M 1976,5560 L 2124,5560"/>
 <path fill="none" stroke="rgb(179,179,179)" stroke-linejoin="round" d="M 1976,4730 L 2124,4730"/>
 <path fill="none" stroke="rgb(179,179,179)" stroke-linejoin="round" d="M 1976,4730 L 2124,4730"/>
 <path fill="none" stroke="rgb(179,179,179)" stroke-linejoin="round" d="M 1976,3902 L 2124,3902"/>
 <path fill="none" stroke="rgb(179,179,179)" stroke-linejoin="round" d="M 1976,3902 L 2124,3902"/>
 <path fill="none" stroke="rgb(179,179,179)" stroke-linejoin="round" d="M 1976,3072 L 2124,3072"/>
 <path fill="none" stroke="rgb(179,179,179)" stroke-linejoin="round" d="M 1976,3072 L 2124,3072"/>
 <path fill="none" stroke="rgb(179,179,179)" stroke-linejoin="round" d="M 1976,2242 L 2124,2242"/>
 <path fill="none" stroke="rgb(179,179,179)" stroke-linejoin="round" d="M 1976,2242 L 2124,2242"/>
 <path fill="none" stroke="rgb(179,179,179)" stroke-linejoin="round" d="M 1976,1413 L 2124,1413"/>
 <path fill="none" stroke="rgb(179,179,179)" stroke-linejoin="round" d="M 1976,1413 L 2124,1413"/>
 <path fill="none" stroke="rgb(179,179,179)" stroke-linejoin="round" d="M 2124,6390 L 2124,1413"/>
 <path fill="none" stroke="rgb(0,69,134)" stroke-width="79" stroke-linejoin="round" d="M 2124,2242 L 2130,6390 2138,3653 2143,3072 2148,2906 2153,2740 2158,2657 2163,6390 2166,6390 2176,4730 2178,5062 2181,5228 2183,5394 2186,5477 2189,5560 2191,5643 2195,5809 2200,5892 2205,5975 2215,6058 2221,6058 2228,6141 2233,6141 2248,6224 2260,6224 2273,6224 2286,6224 2291,6307 2301,6307 2314,6307 2319,6141 2328,6141 2330,6224 2343,6224 2353,6224 2368,6224 2381,6224 2400,6224 2416,6307 2421,6307 2441,6307 2449,6307 2471,6307 2476,6307 2488,6307 2504,6307 2519,6307 2531,6307 2543,6307 2556,6307 2571,6307 2584,6307 2598,6307 2611,6307 2623,6307 2641,6307 2651,6307 2666,6390 2681,6390 2691,6390 2714,6390 2719,6390 2738,6390 2748,6390 2761,6390 2774,6390 2786,6390 2803,6390 2814,6390 2826,6390 2841,6390 2858,6390 2879,6390 2899,6390 2909,6390 2921,6390 2936,6390 2949,6390 2961,6390 2977,6390 2988,6390 3004,6390 3019,6390 3029,6390 3044,6390 3058,6390 3071,6390 3084,6390 3097,6390 3112,6390 3118,6307 3123,6307 3141,6307 3151,6307 3164,6307 3181,6307 3194,6307 3206,6307 3219,6307 3232,6307 3247,6307 3259,6307 3276,6307 3287,6307 3299,6307 3313,6307 3326,6307 3341,6307 3354,6307 3367,6307 3381,6307 3394,6307 3409,6307 3422,6307 3437,6307 3451,6307 3464,6307 3477,6307 3489,6307 3502,6307 3516,6307 3531,6307 3547,6307 3557,6307 3570,6307 3584,6307 3596,6307 3614,6307 3624,6307 3637,6307 3651,6307 3667,6307 3679,6307 3695,6307 3705,6307 3719,6307 3732,6307 3747,6307 3765,6307 3772,6307 3787,6307 3799,6307 3814,6307 3827,6307 3840,6307 3857,6307 3867,6307 3882,6307 3897,6307 3906,6307 3924,6307 3939,6307 3962,6307 3974,6307 3989,6307 4002,6307 4020,6307 4030,6307 4047,6307 4057,6307 4070,6307 4097,6307 4119,6307 4127,6307 4142,6307 4152,6307 4165,6307 4177,6307 4192,6307 4205,6307 4220,6307 4233,6307 4244,6307 4262,6307 4272,6307 4288,6307 4300,6307 4314,6307 4327,6307 4342,6307 4355,6307 4369,6307 4379,6307 4395,6307 4407,6307 4423,6307 4434,6307 4447,6307 4462,6307 4475,6307 4490,6307 4502,6307 4515,6307 4530,6307 4543,6307 4558,6307 4572,6307 4582,6307 4597,6307 4610,6307 4625,6307 4637,6307 4642,6224 4650,6224 4665,6224 4670,6307 4678,6307 4690,6224 4696,6224 4705,6224 4717,6224 4733,6224 4745,6224 4761,6224 4772,6224 4787,6224 4793,6307 4803,6307 4810,6224 4813,6224 4828,6224 4840,6224 4853,6224 4868,6224 4880,6224 4895,6224 4907,6224 4918,6307 4920,6307 4935,6307 4948,6307 4962,6307 4975,6307 4988,6307 5003,6307 5016,6307 5030,6307 5043,6307 5058,6307 5070,6307 5083,6307 5097,6307 5110,6307 5123,6307 5138,6307 5151,6307 5165,6307 5178,6307 5190,6307 5206,6307 5218,6307 5235,6307 5245,6307 5258,6307 5278,6307 5288,6307 5300,6307 5313,6307 5328,6307 5346,6307 5355,6307 5368,6307 5391,6307 5396,6307 5408,6307 5420,6307 5435,6307 5448,6307 5463,6307 5476,6307 5495,6307 5503,6307 5516,6307 5533,6307 5544,6307 5555,6307 5570,6307 5583,6307 5598,6307 5611,6307 5623,6307 5638,6307 5656,6307 5666,6307 5679,6307 5690,6307 5706,6307 5718,6307 5736,6307 5746,6307 5758,6307 5773,6307 5786,6307 5801,6307 5815,6307 5828,6307 5841,6307 5853,6307 5869,6307 5881,6307 5896,6307 5908,6307 5921,6307 5936,6307 5951,6307 5961,6307 5976,6307 5989,6307 6004,6307 6023,6307 6033,6307 6044,6307 6056,6307 6083,6307 6098,6307 6111,6307 6126,6307 6139,6307 6153,6307 6166,6307 6179,6307 6191,6307 6209,6307 6218,6307 6231,6307 6246,6307 6267,6307 6274,6307 6286,6307 6306,6307 6314,6307 6329,6307 6343,6307 6353,6307 6366,6307 6381,6307 6394,6307 6408,6307 6424,6307 6434,6307 6449,6307 6464,6307 6478,6307 6489,6307 6501,6307 6517,6307 6532,6307 6543,6307 6559,6307 6569,6307 6584,6307 6597,6307 6614,6307 6624,6307 6636,6307 6654,6307 6664,6307 6679,6307 6691,6307 6707,6307 6722,6307 6735,6307 6741,6224 6749,6224 6759,6224 6772,6224 6787,6224 6800,6224 6814,6224 6829,6224 6839,6224 6857,6224 6869,6224 6884,6224 6894,6224 6907,6224 6930,6224 6935,6224 6949,6224 6964,6224 6992,6224 7004,6224 7019,6224 7029,6224 7042,6224 7057,6224 7069,6224 7084,6224 7104,6224 7110,6224 7125,6224 7139,6224 7154,6224 7167,6224 7177,6224 7192,6224 7204,6224 7219,6224 7234,6224 7245,6224 7262,6224 7272,6224 7287,6224 7302,6224 7312,6224 7327,6224 7342,6224 7354,6224 7370,6224 7380,6224 7395,6224 7407,6224 7422,6224 7437,6224 7447,6224 7462,6224 7477,6224 7490,6224 7502,6224 7515,6224 7532,6224 7542,6224 7557,6224 7570,6224 7583,6224 7597,6224 7609,6224 7625,6224 7637,6224 7650,6224 7664,6224 7677,6224 7692,6224 7705,6224 7734,6224 7750,6224 7760,6224 7773,6224 7788,6224 7802,6224 7812,6224 7827,6224 7840,6224 7853,6224 7867,6224 7880,6224 7895,6224 7910,6224 7920,6224 7935,6224 7955,6224 7963,6224 7978,6224 7990,6224 8005,6224 8015,6224 8030,6224 8045,6224 8055,6224 8070,6224 8083,6224 8098,6224 8110,6224 8122,6224 8137,6224 8150,6224 8165,6224 8178,6224 8190,6224 8205,6224 8218,6224 8233,6224 8246,6224 8257,6224 8273,6224 8285,6224 8300,6224 8313,6224 8325,6224 8340,6224 8353,6224 8371,6224 8381,6224 8395,6224 8408,6224 8423,6224 8436,6224 8448,6224 8460,6224 8475,6224 8488,6224 8503,6224 8517,6224 8528,6224 8543,6224 8556,6224 8571,6224 8582,6224 8595,6224 8610,6224 8623,6224 8638,6224 8650,6224 8665,6224 8678,6224 8691,6224 8708,6224 8718,6224 8733,6224 8746,6224 8758,6224 8774,6224 8785,6224 8800,6224 8813,6224 8826,6224 8841,6224 8853,6224 8871,6224 8881,6224 8893,6224 8909,6224 8920,6224 8936,6224 8948,6224 8961,6224 8976,6224 8990,6224 9003,6224 9016,6224 9034,6224 9043,6224 9061,6224 9071,6224 9086,6224 9099,6224 9110,6224 9126,6224 9141,6224 9151,6224 9164,6224 9178,6224 9191,6224 9206,6224 9221,6224 9231,6224 9246,6224 9261,6224 9274,6224 9286,6224 9299,6224 9313,6224 9326,6224 9341,6224 9354,6224 9366,6224 9381,6224 9396,6224 9409,6224 9424,6224 9434,6224 9448,6224 9461,6224 9476,6224 9489,6224 9516,6224 9531,6224 9546,6224 9557,6224 9569,6224 9583,6224 9609,6224 9611,6224 9634,6224 9638,6224 9659,6224 9669,6224 9679,6224 9692,6224 9703,6224 9719,6224 9731,6224 9749,6224 9759,6224 9771,6224 9786,6224 9801,6224 9814,6224 9829,6224 9839,6224 9854,6224 9869,6224 9884,6224 9894,6224 9909,6224 9924,6224 9934,6224 9949,6224 9962,6224 9974,6224 9989,6224 10002,6224 10019,6224 10030,6224 10056,6224 10072,6224 10090,6224 10096,6224 10109,6224 10137,6224 10152,6224 10169,6224 10179,6224 10192,6224 10207,6224 10222,6224 10231,6224 10244,6224 10259,6224 10274,6224 10287,6224 10299,6224 10312,6224 10329,6224 10340,6224 10357,6224 10366,6224 10382,6224 10397,6224 10407,6224 10422,6224 10437,6224 10447,6224 10462,6224 10477,6224 10491,6224 10502,6224 10517,6224 10532,6224 10542,6224 10557,6224 10572,6224 10582,6224 10597,6224 10610,6224 10624,6224 10637,6224 10649,6224 10665,6224 10677,6224 10692,6224 10707,6224 10717,6224 10732,6224 10748,6224 10762,6224 10772,6224 10787,6224 10802,6224 10813,6224 10827,6224 10842,6224 10852,6141 10867,6141 10883,6141 10897,6141 10907,6141 10922,6141 10938,6141 10948,6141 10964,6141 10975,6141 10987,6141 11003,6141 11015,6141 11030,6141 11042,6141 11055,6141 11070,6141 11083,6141 11097,6141 11110,6141 11122,6141 11138,6141 11150,6141 11165,6141 11177,6141 11193,6141 11208,6141 11220,6141 11232,6141 11245,6141 11258,6141 11273,6141 11285,6141 11300,6141 11315,6141 11325,6141 11346,6141 11365,6141 11380,6141 11408,6141 11420,6141 11435,6141 11448,6141 11463,6141 11476,6141 11490,6141 11505,6141 11515,6141 11530,6141 11543,6141 11560,6141 11570,6141 11583,6141 11598,6141 11612,6141 11625,6141 11640,6141 11650,6141 11666,6141 11677,6141 11690,6141 11705,6141 11718,6141 11731,6141 11745,6141 11758,6141 11773,6141 11786,6141 11798,6141 11815,6141 11825,6141 11840,6141 11853,6141 11868,6141 11880,6141 11895,6141 11911,6141 11921,6141 11938,6141 11948,6141 11960,6141 11978,6141 11988,6141 12004,6141 12015,6141 12036,6141 12043,6141 12056,6141 12071,6141 12083,6141 12096,6141 12111,6141 12123,6141 12138,6141 12150,6141 12163,6141 12178,6141 12191,6141 12205,6141 12218,6141 12231,6141 12246,6141 12259,6141 12275,6141 12286,6141 12298,6141 12313,6141 12326,6141 12340,6141 12358,6141 12366,6141 12381,6141 12394,6141 12408,6141 12421,6141 12433,6141 12449,6141 12461,6141 12476,6141 12488,6141 12501,6141 12516,6141 12531,6141 12543,6141 12556,6141 12569,6141 12584,6141 12596,6141 12613,6141 12623,6141 12636,6141 12651,6141 12664,6141 12678,6141 12691,6141 12704,6141 12719,6141 12733,6141 12748,6141 12759,6141 12771,6141 12787,6141 12798,6141 12813,6141 12826,6141 12839,6141 12857,6141 12866,6141 12881,6141 12894,6141 12906,6141 12924,6141 12933,6141 12949,6141 12961,6141 12974,6141 12989,6141 13001,6141 13019,6141 13031,6141 13042,6141 13057,6141 13071,6141 13084,6141 13096,6141 13109,6141 13124,6141 13136,6141 13151,6141 13167,6141 13177,6141 13192,6141 13206,6141 13219,6141 13234,6141 13247,6141 13261,6141 13271,6141 13286,6141 13302,6141 13312,6141 13326,6141 13341,6141 13357,6141 13367,6141 13382,6141 13396,6141 13406,6141 13422,6141 13437,6141 13450,6141 13464,6141 13474,6141 13489,6141 13502,6141 13515,6141 13529,6141 13542,6141 13557,6141 13569,6141 13594,6141 13599,6141 13612,6141 13627,6141 13642,6141 13654,6141 13667,6141 13702,6141 13717,6141 13734,6141 13775,6141 13784,6141 13799,6141 13819,6141 13830,6141 13840,6141 13857,6141 13874,6141 13879,6141 13895,6141 13907,6141 13927,6141 13934,6141 13947,6141 13962,6141 13975,6141 13987,6141 14007,6141 14017,6141 14035,6141 14043,6141 14054,6141 14069,6141 14085,6141 14097,6141 14113,6141 14122,6141 14137,6141 14152,6141 14168,6141 14178,6141 14189,6141 14205,6141 14220,6141 14235,6141 14245,6141 14257,6141 14272,6141 14285,6141 14300,6141 14312,6141 14325,6141 14342,6141 14355,6141 14370,6141 14379,6141 14395,6141 14410,6141 14420,6141 14435,6141 14450,6141 14460,6141 14475,6141 14490,6141 14503,6141 14517,6141 14527,6141 14545,6141 14555,6141 14570,6141 14582,6141 14595,6141 14695,6141 14712,6141 14717,6141 14730,6141 14745,6141 14760,6141 14772,6141 14785,6141 14800,6141 14815,6141 14828,6141 14842,6141 14852,6141 14865,6141 14883,6141 14893,6141 14907,6141 14925,6141 14935,6141 14948,6141 14963,6141 14975,6141 14988,6141 15000,6141 15260,6141 15273,6141 15286,6141 15299,6141 15320,6141 15331,6141 15341,6141 15353,6141 15365,6141 15380,6141 15396,6141 15408,6141 15421,6141 15433,6141 15448,6141 15461,6141 15476,6141 15489,6141 15500,6141 15516,6141 15528,6141 15546,6141 15559,6141 15568,6141 15586,6141 15598,6141 15611,6141 15624,6141 15635,6141 15651,6141 15663,6141 15679,6141 15691,6141 15706,6141 15723,6141 15731,6141 15746,6141 15759,6141 15773,6141 15786,6141 15799,6141 15814,6141 15828,6141 15841,6141 15853,6141 15866,6141 15881,6141 15893,6141 15906,6141 15921,6141 15939,6141 15954,6141 15961,6141 15973,6141 15989,6141 16001,6141 16017,6141 16031,6141 16043,6141 16056,6141 16074,6141 16084,6141 16098,6141 16108,6141 16124,6141 16142,6141 16152,6141 16168,6141 16176,6141 16191,6141 16204,6141 16219,6141 16231,6141 16244,6141 16259,6141 16274,6141 16287,6141 16299,6141 16311,6141 16326,6141 16339,6141 16356,6141 16369,6141 16379,6141 16394,6141 16407,6141 16421,6141 16436,6141 16446,6141 16462,6141 16474,6141 16489,6141 16501,6141 16514,6141 16529,6141 16542,6141 16556,6141 16569,6141 16582,6141 16597,6141 16609,6141 16626,6141 16636,6141 16649,6141 16664,6141 16677,6141 16691,6141 16704,6141 16717,6141 16732,6141 16745,6141 16764,6141 16772,6141 16784,6141 16799,6141 16812,6141 16829,6141 16842,6141 16852,6141 16867,6141 16884,6141 16897,6141 16909,6141 16919,6141 16935,6141 16946,6141 16962,6141 16977,6141 16987,6141 17002,6141 17014,6141 17029,6141 17042,6141 17055,6141 17070,6141 17082,6141 17097,6141 17109,6141 17125,6141 17140,6141 17149,6141 17164,6141 17177,6141 17195,6141 17205,6141 17219,6141 17232,6141 17250,6141 17257,6141 17275,6141 17287,6141 17299,6141 17312,6141 17327,6141 17352,6141 17367,6141 17380,6141 17392,6141 17407,6141 17419,6141 17435,6141 17447,6141 17465,6141 17474,6141 17502,6141 17538,6141 17557,6141 17570,6141 17593,6141 17598,6141 17707,6224 17718,6224 17730,6224 17745,6224 17757,6224 17773,6224 17785,6224 17798,6224 17812,6224 17825,6224 17840,6224 17853,6224 17865,6224 17882,6224 17895,6224 17908,6224 17923,6224 17933,6224 17947,6224 17960,6224 17975,6224 17988,6224 18002,6224 18015,6224 18028,6224 18040,6141 18045,6141 18056,6141 18070,6141 18085,6141 18095,6141 18110,6141 18123,6141 18135,6141 18150,6141 18165,6141 18178,6141 18191,6141 18202,6141 18218,6141 18230,6141 18246,6141 18258,6141 18270,6141 18285,6141 18298,6141 18316,6141 18328,6141 18338,6141 18353,6141 18365,6141 18381,6141 18393,6141 18408,6141 18423,6141 18433,6141 18448,6141 18460,6141 18480,6141 18498,6141 18508,6141 18521,6141 18530,6141 18543,6141 18558,6141 18568,6141 18583,6141 18595,6141 18610,6141 18623,6141 18636,6141 18651,6141 18665,6141 18703,6141 18719,6141 18730,6141 18746,6141 18761,6141 18771,6141 18786,6141 18798,6141 18813,6141 18826,6141 18839,6141 18856,6141 18865,6141 18881,6141 18893,6141 18906,6141 18921,6141 18936,6141 18948,6141 18961,6141 18974,6141 18988,6141 19001,6141 19011,6224 19016,6224 19034,6224 19041,6224 19044,6141 19055,6141 19071,6141 19086,6141 19096,6141 19109,6141 19123,6141 19138,6141 19151,6141 19164,6141 19176,6141 19191,6141 19203,6141 19219,6141 19231,6141 19244,6141 19258,6141 19273,6141 19289,6141 19299,6141 19314,6141 19336,6141 19338,6141 19344,6224 19354,6224 19366,6224 19379,6224 19393,6224 19409,6224 19421,6224 19434,6224 19447,6224 19461,6224 19474,6224 19489,6224 19502,6224 19514,6224 19529,6224 19541,6224 19556,6224 19569,6224 19586,6224 19596,6224 19609,6224 19627,6224 19637,6224 19648,6224 19664,6224 19676,6224 19692,6224 19704,6224 19719,6224 19731,6224 19744,6224 19759,6224 19772,6224 19784,6224 19799,6224 19812,6224 19827,6224 19839,6224 19854,6224 19866,6224 19882,6224 19894,6224 19907,6224 19919,6224 19934,6224 19947,6224 19962,6224 19975,6224 19989,6224 20002,6224 20014,6224 20029,6224 20041,6224 20054,6224 20072,6224 20084,6224 20097,6224 20109,6224 20124,6224 20137,6224 20149,6224 20165,6224 20179,6224 20192,6224 20204,6224 20217,6224 20232,6224 20244,6224 20259,6224 20272,6224 20285,6224 20300,6224 20312,6224 20329,6224 20342,6224 20352,6224 20367,6224 20379,6224 20392,6224 20407,6224 20420,6224 20435,6224 20452,6224 20459,6224 20475,6224 20487,6224 20502,6224 20514,6224 20529,6224 20547,6224 20555,6224 20572,6224 20584,6224 20595,6224 20610,6224 20625,6224 20637,6224 20649,6224 20665,6224 20677,6224 20690,6224 20707,6224 20717,6224 20732,6224 20745,6224 20758,6224 20774,6224 20785,6224 20797,6224 20812,6224 20828,6224 20839,6224 20852,6224 20865,6224 20880,6224 20893,6224 20907,6224 20922,6224 20935,6224 20950,6224 20960,6224 20977,6224 20990,6224 21003,6224 21018,6224 21028,6224 21042,6224 21055,6224 21068,6224 21083,6224 21095,6224 21112,6224 21122,6224 21135,6224 21150,6224 21162,6224 21177,6224 21190,6224 21203,6224 21218,6224 21230,6224 21245,6224 21258,6224 21270,6224 21286,6224 21297,6224 21312,6224 21325,6224 21338,6224 21353,6224 21365,6224 21380,6224 21395,6224 21405,6224 21423,6224 21432,6224 21450,6224 21460,6224 21476,6224 21490,6224 21500,6224 21515,6224 21528,6224 21541,6224 21557,6224 21568,6224 21585,6224 21595,6224 21608,6224 21622,6224 21635,6224 21650,6224 21663,6224 21678,6224 21693,6224 21703,6224 21718,6141 21731,6141 21746,6141 21758,6141 21773,6141 21788,6141 21798,6141 21813,6141 21828,6141 21840,6141 21856,6141 21866,6141 21881,6141 21893,6141 21905,6141 21921,6141 21933,6141 21949,6141 21963,6141 21976,6141 21988,6141 22001,6141 22016,6141 22028,6141 22041,6141 22058,6141 22069,6141 22083,6141 22095,6141 22108,6141 22123,6141 22136,6141 22153,6141 22163,6141 22176,6141 22191,6141 22204,6141 22218,6141 22233,6141 22251,6141 22264,6141 22274,6141 22288,6141 22298,6141 22313,6141 22326,6141 22339,6141 22353,6141 22366,6141 22384,6141 22396,6141 22409,6141 22421,6141 22433,6141 22449,6141 22464,6141 22474,6141 22488,6141 22503,6141 22516,6141 22529,6141 22542,6141 22556,6141 22568,6141 22581,6141 22599,6141 22611,6141 22623,6141 22636,6141 22649,6141 22664,6141 22678,6141 22693,6141 22706,6141 22716,6141 22734,6141 22743,6141 22759,6141 22771,6141 22786,6141 22799,6141 22811,6141 22826,6141 22839,6141 22851,6141 22867,6141 22878,6141 22894,6141 22906,6141 22922,6141 22934,6141 22946,6141 22961,6141 22974,6141 22989,6141 23002,6141 23014,6141 23029,6141 23042,6141 23054,6141 23069,6141 23084,6141 23096,6141 23109,6141 23122,6141 23136,6141 23154,6141 23164,6141 23177,6141 23182,6224 23189,6224 23206,6224 23216,6224 23232,6224 23244,6224 23254,6141 23257,6141 23265,6224 23271,6224 23284,6224 23299,6224 23312,6224 23325,6224 23339,6224 23354,6224 23367,6224 23379,6224 23392,6224 23406,6224 23419,6224 23434,6224 23447,6224 23462,6224 23474,6224 23487,6224 23502,6224 23515,6224 23527,6224 23542,6224 23554,6224 23569,6224 23582,6224 23595,6224 23609,6224 23624,6224 23637,6224 23650,6224 23662,6224 23677,6224 23689,6224 23705,6224 23717,6224 23729,6224 23747,6224 23759,6224 23772,6224 23785,6224 23799,6224 23812,6224 23827,6224 23840,6224 23852,6224 23864,6224 23882,6224 23892,6224 23907,6224 23920,6224 23932,6224 23960,6224 23977,6224 23988,6224 23999,6224 24015,6224 24027,6224 24042,6224 24055,6224 24067,6224 24090,6224 24095,6224 24110,6224 24123,6224 24137,6224 24150,6224 24162,6224 24180,6224 24190,6224 24202,6224 24222,6224 24233,6224 24245,6224 24262,6224 24270,6224 24285,6224 24300,6224 24315,6224 24324,6224 24337,6224 24352,6224 24368,6224 24383,6224 24392,6224 24407,6224 24420,6224 24433,6224 24448,6224 24460,6224 24472,6224 24488,6224 24500,6224 24540,6224 24592,6224 24595,6224 24667,6224 24678,6224 24690,6224 24703,6224 24717,6224 24730,6224 24743,6224 24760,6224 24773,6224 24785,6224 24798,6224 24815,6224 24985,6224 24993,6224 25000,6224 25015,6224 25028,6224 25041,6224 25055,6224 25068,6224 25083,6224 25096,6224 25111,6224 25123,6224 25135,6224 25153,6224 25163,6224 25178,6224 25190,6224 25203,6224 25218,6224 25231,6224 25244,6224 25260,6224 25273,6224 25288,6224 25299,6224 25310,6224 25328,6224 25338,6224 25353,6224 25369,6224 25378,6224 25393,6224 25406,6224 25423,6224 25434,6224 25448,6224 25461,6224 25478,6224 25489,6224 25504,6224 25528,6224 25541,6224 25561,6224 25573,6224 25583,6224 25619,6224 25656,6224 25679,6224 25699,6224 25711,6224 25733,6224 25746,6224 25759,6224 25773,6224 25783,6224 25798,6224 25811,6224 25826,6224 25838,6224 25851,6224 25866,6224 25881,6224 25894,6224 25908,6224 25918,6224 25934,6224 25956,6224 25962,6224 25973,6224 25986,6224 26001,6224 26014,6224 26029,6224 26041,6224 26054,6224 26069,6224 26081,6224 26097,6224 26111,6224 26121,6224 26136,6224 26149,6224 26166,6224 26179,6224 26189,6224 26204,6224 26217,6224 26233,6224 26244,6224 26256,6224 26274,6224 26284,6224 26298,6224 26311,6224 26326,6224 26339,6224 26354,6224 26366,6224 26381,6224 26391,6224 26407,6224 26422,6224 26434,6224 26446,6224 26459,6224 26474,6224 26487,6224 26504,6224 26514,6224 26527,6224 26542,6224 26555,6224 26569,6224 26584,6224 26594,6224 26609,6224 26622,6224 26636,6224 26649,6224 26662,6224 26677,6224 26690,6224 26706,6224 26717,6224 26729,6224 26745,6224 26757,6224 26772,6224 26784,6224 26797,6224 26812,6224 26824,6224 26839,6224 26854,6224 26867,6224 26880,6224 26891,6224 26907,6224 26922,6224 26932,6224 26947,6224 26959,6224 26974,6224 26987,6224 27002,6224 27015,6224 27029,6224 27042,6224 27055,6224 27067,6224 27082,6224 27094,6224 27112,6224 27122,6224 27135,6224 27153,6224 27162,6224 27180,6224 27190,6224 27202,6224 27218,6224 27229,6224 27245,6224 27257,6224 27270,6224 27285,6224 27297,6224 27312,6224 27325,6224 27338,6224 27354,6224 27364,6224 27382,6224 27392,6224 27405,6224 27419,6224 27432,6224 27447,6224 27460,6224 27473,6224 27489,6224 27500,6224 27517,6224 27528,6224 27543,6224 27554,6224 27567,6224 27582,6224 27595,6224 27608,6224 27622,6224 27635,6224 27650,6224 27663,6224 27675,6224 27690,6224 27705,6224 27718,6224 27730,6224 27743,6224 27760,6224 27770,6224 27785,6224 27800,6224 27812,6224 27825,6224 27837,6224 27853,6224 27865,6224 27878,6224 27892,6224 27905,6224 27920,6224 27936,6224 27945,6224 27962,6224 27975,6224 27990,6224 28001,6224 28012,6224 28030,6224 28040,6224 28058,6224 28068,6224 28080,6224 28095,6224 28108,6224 28126,6224 28136,6224 28150,6224 28163,6224 28175,6224 28193,6224 28203,6224 28220,6224 28230,6224 28243,6224 28261,6224 28271,6224 28285,6224 28298,6224 28311,6224 28328,6224 28340,6224 28355,6224 28368,6224 28381,6224 28393,6224 28405,6224 28420,6224 28433,6224 28448,6224 28463,6224 28475,6224 28488,6224 28501,6224 28516,6224 28529,6224 28540,6224 28558,6224 28568,6224 28581,6224 28596,6224 28610,6224 28626,6224 28636,6224 28648,6224 28664,6224 28675,6224 28691,6224 28706,6224 28719,6224 28734,6224 28743,6224 28761,6224 28773,6224 28786,6224 28800,6224 28811,6224 28826,6224 28838,6224 28851,6224 28868,6224 28878,6224 28896,6224 28906,6224 28921,6224 28933,6224 28946,6224 28961,6224 28974,6224 28989,6224 29003,6224 29013,6224 29028,6224 29041,6224 29054,6224 29064,6141 29068,6141 29083,6141 29099,6141 29109,6141 29121,6141 29138,6141 29148,6141 29164,6141 29176,6141 29189,6141 29203,6141 29216,6141 29231,6141 29244,6141 29257,6141 29271,6141 29284,6141 29299,6141 29317,6141 29324,6141 29344,6141 29389,6224 29421,6224 29434,6224 29447,6224 29459,6224 29476,6224 29486,6224 29499,6141 29504,6141 29517,6141 29526,6141 29541,6141 29554,6141 29569,6141 29582,6141 29593,6141 29601,6224 29609,6224 29624,6224 29637,6224 29649,6224 29661,6224 29676,6224 29689,6224 29704,6224 29717,6224 29731,6224 29746,6224 29757,6224 29772,6224 29785,6224 29796,6224 29811,6224 29824,6224 29842,6224 29854,6224 29864,6224 29871,6141 29879,6141 29892,6141 29907,6141 29920,6141 29931,6141 29936,6224 29947,6224 29959,6224 29975,6224 29986,6224 29999,6224 30009,6141 30014,6141 30019,6224 30027,6224 30042,6224 30054,6224 30067,6224 30082,6224 30094,6224 30112,6224 30121,6224 30137,6224 30149,6224 30162,6224 30177,6224 30189,6224 30202,6224 30217,6224 30230,6224 30245,6224 30257,6224 30272,6224 30285,6224 30300,6224 30312,6224 30324,6224 30337,6224 30355,6224 30365,6224 30380,6224 30394,6224 30404,6224 30420,6224 30435,6224 30447,6224 30459,6224 30472,6224 30487,6224 30500,6224 30514,6224 30527,6224 30540,6224 30555,6224 30568,6224 30584,6224 30594,6224 30607,6224 30622,6224 30635,6224 30649,6224 30662,6224 30675,6224 30693,6224 30703,6224 30717,6224 30730,6224 30742,6224 30758,6224 30770,6224 30784,6224 30797,6224 30810,6224 30825,6224 30840,6224 30852,6224 30865,6224 30877,6224 30895,6224 30905,6224 30920,6224 30932,6224 30945,6224 30960,6224 30973,6224 30987,6224 31002,6224 31013,6224 31028,6224 31040,6224 31057,6224 31067,6224 31080,6224 31098,6224 31107,6224 31122,6224 31135,6224 31148,6224 31163,6224 31175,6224 31190,6224 31203,6224 31215,6224 31233,6224 31242,6224 31260,6224 31273,6224 31283,6224 31301,6224 31307,6141 31312,6141 31325,6141 31338,6141 31351,6141"/>
 <text class="SVGTextShape"><tspan class="TextParagraph" font-family="Liberation Sans, sans-serif" font-size="353px" font-weight="400"><tspan class="TextPosition" x="586" y="6958"><tspan fill="rgb(0,0,0)" stroke="none" style="white-space: pre">2025-03-10 15:46:00</tspan></tspan></tspan></text>
 <text class="SVGTextShape"><tspan class="TextParagraph" font-family="Liberation Sans, sans-serif" font-size="353px" font-weight="400"><tspan class="TextPosition" x="4188" y="6958"><tspan fill="rgb(0,0,0)" stroke="none" style="white-space: pre">2025-03-11 15:46:00</tspan></tspan></tspan></text>
 <text class="SVGTextShape"><tspan class="TextParagraph" font-family="Liberation Sans, sans-serif" font-size="353px" font-weight="400"><tspan class="TextPosition" x="7791" y="6958"><tspan fill="rgb(0,0,0)" stroke="none" style="white-space: pre">2025-03-12 15:46:00</tspan></tspan></tspan></text>
 <text class="SVGTextShape"><tspan class="TextParagraph" font-family="Liberation Sans, sans-serif" font-size="353px" font-weight="400"><tspan class="TextPosition" x="11394" y="6958"><tspan fill="rgb(0,0,0)" stroke="none" style="white-space: pre">2025-03-13 15:46:00</tspan></tspan></tspan></text>
 <text class="SVGTextShape"><tspan class="TextParagraph" font-family="Liberation Sans, sans-serif" font-size="353px" font-weight="400"><tspan class="TextPosition" x="14996" y="6958"><tspan fill="rgb(0,0,0)" stroke="none" style="white-space: pre">2025-03-14 15:46:00</tspan></tspan></tspan></text>
 <text class="SVGTextShape"><tspan class="TextParagraph" font-family="Liberation Sans, sans-serif" font-size="353px" font-weight="400"><tspan class="TextPosition" x="18600" y="6958"><tspan fill="rgb(0,0,0)" stroke="none" style="white-space: pre">2025-03-15 15:46:00</tspan></tspan></tspan></text>
 <text class="SVGTextShape"><tspan class="TextParagraph" font-family="Liberation Sans, sans-serif" font-size="353px" font-weight="400"><tspan class="TextPosition" x="22202" y="6958"><tspan fill="rgb(0,0,0)" stroke="none" style="white-space: pre">2025-03-16 15:46:00</tspan></tspan></tspan></text>
 <text class="SVGTextShape"><tspan class="TextParagraph" font-family="Liberation Sans, sans-serif" font-size="353px" font-weight="400"><tspan class="TextPosition" x="25805" y="6958"><tspan fill="rgb(0,0,0)" stroke="none" style="white-space: pre">2025-03-17 15:46:00</tspan></tspan></tspan></text>
 <text class="SVGTextShape"><tspan class="TextParagraph" font-family="Liberation Sans, sans-serif" font-size="353px" font-weight="400"><tspan class="TextPosition" x="29407" y="6958"><tspan fill="rgb(0,0,0)" stroke="none" style="white-space: pre">2025-03-18 15:46:00</tspan></tspan></tspan></text>
 <text class="SVGTextShape"><tspan class="TextParagraph" font-family="Liberation Sans, sans-serif" font-size="353px" font-weight="400"><tspan class="TextPosition" x="1695" y="6510"><tspan fill="rgb(0,0,0)" stroke="none" style="white-space: pre">0</tspan></tspan></tspan></text>
 <text class="SVGTextShape"><tspan class="TextParagraph" font-family="Liberation Sans, sans-serif" font-size="353px" font-weight="400"><tspan class="TextPosition" x="1513" y="5680"><tspan fill="rgb(0,0,0)" stroke="none" style="white-space: pre">10</tspan></tspan></tspan></text>
 <text class="SVGTextShape"><tspan class="TextParagraph" font-family="Liberation Sans, sans-serif" font-size="353px" font-weight="400"><tspan class="TextPosition" x="1513" y="4850"><tspan fill="rgb(0,0,0)" stroke="none" style="white-space: pre">20</tspan></tspan></tspan></text>
 <text class="SVGTextShape"><tspan class="TextParagraph" font-family="Liberation Sans, sans-serif" font-size="353px" font-weight="400"><tspan class="TextPosition" x="1513" y="4022"><tspan fill="rgb(0,0,0)" stroke="none" style="white-space: pre">30</tspan></tspan></tspan></text>
 <text class="SVGTextShape"><tspan class="TextParagraph" font-family="Liberation Sans, sans-serif" font-size="353px" font-weight="400"><tspan class="TextPosition" x="1513" y="3192"><tspan fill="rgb(0,0,0)" stroke="none" style="white-space: pre">40</tspan></tspan></tspan></text>
 <text class="SVGTextShape"><tspan class="TextParagraph" font-family="Liberation Sans, sans-serif" font-size="353px" font-weight="400"><tspan class="TextPosition" x="1513" y="2362"><tspan fill="rgb(0,0,0)" stroke="none" style="white-space: pre">50</tspan></tspan></tspan></text>
 <text class="SVGTextShape"><tspan class="TextParagraph" font-family="Liberation Sans, sans-serif" font-size="353px" font-weight="400"><tspan class="TextPosition" x="1513" y="1533"><tspan fill="rgb(0,0,0)" stroke="none" style="white-space: pre">60</tspan></tspan></tspan></text>
 <text class="SVGTextShape"><tspan class="TextParagraph" font-family="Liberation Sans, sans-serif" font-size="459px" font-weight="700"><tspan class="TextPosition" x="10823" y="606"><tspan fill="rgb(0,0,0)" stroke="none" style="white-space: pre">Error rate DCF77 messages compared to NTP time</tspan></tspan></tspan></text>
 <text class="SVGTextShape"><tspan class="TextParagraph" font-family="Liberation Sans, sans-serif" font-size="388px" font-weight="400"><tspan class="TextPosition" x="4785" y="1218"><tspan fill="rgb(0,0,0)" stroke="none" style="white-space: pre">Percentage of total complete DCF77 messages within 2 minutes of NTP compared to the total theoretical received DCF77 messages </tspan></tspan></tspan></text>
 <path fill="none" stroke="rgb(0,69,134)" stroke-width="79" stroke-linejoin="round" d="M 14911,8685 L 15699,8685"/>
 <text class="SVGTextShape"><tspan class="TextParagraph" font-family="Liberation Sans, sans-serif" font-size="353px" font-weight="400"><tspan class="TextPosition" x="15798" y="8805"><tspan fill="rgb(0,0,0)" stroke="none" style="white-space: pre">Error rate</tspan></tspan></tspan></text>
 <text class="SVGTextShape"><tspan class="TextParagraph" font-family="Liberation Sans, sans-serif" font-size="318px" font-weight="400"><tspan class="TextPosition" x="16183" y="7604"><tspan fill="rgb(0,0,0)" stroke="none" style="white-space: pre">Time</tspan></tspan></tspan></text>
 <text class="SVGTextShape" transform="rotate(-90 -32250 3479)"><tspan class="TextParagraph" font-family="Liberation Sans, sans-serif" font-size="318px" font-weight="400"><tspan class="TextPosition" x="367" y="4959"><tspan fill="rgb(0,0,0)" stroke="none" style="white-space: pre">Percentage</tspan></tspan></tspan></text>
</svg>